<svg xmlns="http://www.w3.org/2000/svg" viewBox="0 0 64 64" fill="none">
  <defs>
    <linearGradient id="gameGrad" x1="0%" y1="0%" x2="100%" y2="100%">
      <stop offset="0%" style="stop-color:#FF6600;stop-opacity:1" />
      <stop offset="100%" style="stop-color:#FF8C1A;stop-opacity:1" />
    </linearGradient>
  </defs>
  
  <!-- Background -->
  <rect width="64" height="64" rx="12" fill="#0a0a0a"/>
  
  <!-- Game Controller -->
  <!-- Left side -->
  <path d="M12 24c0-4 2-8 6-10l8-2v14l-8-2c-4-2-6-6-6-10z" fill="url(#gameGrad)"/>
  
  <!-- Center body -->
  <rect x="18" y="14" width="28" height="36" rx="8" fill="url(#gameGrad)"/>
  
  <!-- Right side -->
  <path d="M52 24c0-4-2-8-6-10l-8-2v14l8-2c4-2 6-6 6-10z" fill="url(#gameGrad)"/>
  
  <!-- D-Pad left -->
  <rect x="22" y="26" width="3" height="12" rx="1.5" fill="#0a0a0a"/>
  <rect x="19" y="29" width="9" height="3" rx="1.5" fill="#0a0a0a"/>
  
  <!-- Buttons right (ABXY style) -->
  <circle cx="42" cy="24" r="2.5" fill="#0a0a0a"/>
  <circle cx="48" cy="24" r="2.5" fill="#0a0a0a"/>
  <circle cx="42" cy="32" r="2.5" fill="#0a0a0a"/>
  <circle cx="48" cy="32" r="2.5" fill="#0a0a0a"/>
</svg>
